<svg
  width="28"
  height="36"
  fill="none"
  viewBox="0 0 64 64"
  xmlns="http://www.w3.org/2000/svg"
>
  <g id="Apple">
    <path
      d="M47.36,20.64c-4.91,0-7.64,2.74-11.33,2.74s-6.11-2.74-11.33-2.74c-5.73,0-12.28,5.31-12.28,15.46s4.65,16.56,7.87,19.42c2.61,2.31,4.53,4.21,7.91,4.21s5.11-1.35,7.84-1.35,4.73,1.35,7.84,1.35,5.32-1.89,7.91-4.21c3.23-2.86,7.87-9.52,7.87-19.42C59.64,25.95,53.09,20.64,47.36,20.64z"
      fill="white"
    />
    <path
      d="M38.08,12.48c1.84-2.24,3.12-5.28,3.12-8.48,0-0.4-0.02-0.81-0.07-1.22C39.22,3.34,36.05,5.2,34.12,7.44c-1.76,2.06-3.3,5.12-3.3,8.28,0,0.46,0.04,0.9,0.1,1.34C32.04,16.32,35.94,14.56,38.08,12.48z"
      fill="white"
    />
  </g>
</svg>
